P3
# CREATOR: GIMP PNM Filter Version 1.1
64 64
255
242
242
242
242
242
242
204
204
204
230
230
230
230
230
230
242
242
242
204
204
204
229
229
229
242
242
242
230
230
230
217
217
217
229
229
229
242
242
242
217
217
217
230
230
230
204
204
204
217
217
217
242
242
242
255
255
255
230
230
230
255
255
255
229
229
229
255
255
255
242
242
242
255
255
255
255
255
255
242
242
242
242
242
242
255
255
255
242
242
242
255
255
255
230
230
230
242
242
242
255
255
255
242
242
242
230
230
230
242
242
242
255
255
255
255
255
255
242
242
242
242
242
242
242
242
242
255
255
255
230
230
230
242
242
242
242
242
242
242
242
242
255
255
255
242
242
242
242
242
242
229
229
229
230
230
230
230
230
230
229
229
229
255
255
255
230
230
230
242
242
242
255
255
255
242
242
242
204
204
204
242
242
242
242
242
242
242
242
242
242
242
242
242
242
242
230
230
230
191
191
191
217
217
217
217
217
217
230
230
230
242
242
242
242
242
242
242
242
242
230
230
230
230
230
230
230
230
230
217
217
217
230
230
230
204
204
204
242
242
242
217
217
217
242
242
242
217
217
217
230
230
230
255
255
255
204
204
204
242
242
242
217
217
217
217
217
217
255
255
255
229
229
229
255
255
255
242
242
242
255
255
255
242
242
242
242
242
242
171
171
171
255
255
255
255
255
255
242
242
242
242
242
242
255
255
255
217
217
217
242
242
242
230
230
230
255
255
255
204
204
204
242
242
242
255
255
255
255
255
255
242
242
242
217
217
217
242
242
242
230
230
230
229
229
229
242
242
242
217
217
217
217
217
217
217
217
217
217
217
217
229
229
229
242
242
242
191
191
191
191
191
191
204
204
204
217
217
217
230
230
230
230
230
230
230
230
230
217
217
217
230
230
230
217
217
217
242
242
242
204
204
204
204
204
204
217
217
217
217
217
217
191
191
191
217
217
217
204
204
204
217
217
217
255
255
255
230
230
230
242
242
242
255
255
255
217
217
217
230
230
230
230
230
230
242
242
242
242
242
242
229
229
229
255
255
255
209
209
209
255
255
255
255
255
255
242
242
242
255
255
255
147
147
147
149
149
149
229
229
229
87
87
87
197
197
197
255
255
255
242
242
242
217
217
217
166
166
166
242
242
242
255
255
255
220
220
220
255
255
255
255
255
255
242
242
242
230
230
230
217
217
217
255
255
255
242
242
242
191
191
191
229
229
229
217
217
217
217
217
217
242
242
242
242
242
242
255
255
255
230
230
230
217
217
217
230
230
230
230
230
230
230
230
230
217
217
217
230
230
230
217
217
217
166
166
166
204
204
204
217
217
217
204
204
204
229
229
229
242
242
242
217
217
217
153
153
153
217
217
217
217
217
217
191
191
191
217
217
217
230
230
230
242
242
242
255
255
255
230
230
230
217
217
217
217
217
217
242
242
242
242
242
242
204
204
204
255
255
255
255
255
255
180
180
180
255
255
255
171
171
171
72
72
72
170
170
170
255
255
255
191
191
191
0
0
0
221
221
221
255
255
255
199
199
199
18
18
18
165
165
165
203
203
203
88
88
88
67
67
67
255
255
255
255
255
255
124
124
124
242
242
242
242
242
242
242
242
242
242
242
242
230
230
230
229
229
229
242
242
242
242
242
242
204
204
204
242
242
242
229
229
229
204
204
204
204
204
204
204
204
204
230
230
230
230
230
230
217
217
217
230
230
230
217
217
217
204
204
204
242
242
242
191
191
191
204
204
204
204
204
204
204
204
204
217
217
217
204
204
204
230
230
230
179
179
179
217
217
217
230
230
230
204
204
204
166
166
166
204
204
204
217
217
217
229
229
229
217
217
217
230
230
230
242
242
242
217
217
217
242
242
242
242
242
242
242
242
242
229
229
229
217
217
217
41
41
41
255
255
255
255
255
255
34
34
34
1
1
1
30
30
30
0
0
0
7
7
7
247
247
247
255
255
255
242
242
242
1
1
1
0
0
0
1
1
1
2
2
2
180
180
180
255
255
255
255
255
255
12
12
12
233
233
233
255
255
255
230
230
230
246
246
246
176
176
176
255
255
255
242
242
242
242
242
242
217
217
217
229
229
229
230
230
230
217
217
217
217
217
217
230
230
230
204
204
204
230
230
230
204
204
204
191
191
191
217
217
217
230
230
230
217
217
217
242
242
242
204
204
204
230
230
230
217
217
217
230
230
230
191
191
191
255
255
255
229
229
229
230
230
230
204
204
204
230
230
230
191
191
191
230
230
230
242
242
242
242
242
242
242
242
242
191
191
191
255
255
255
242
242
242
183
183
183
255
255
255
242
242
242
255
255
255
166
166
166
4
4
4
242
242
242
242
242
242
238
238
238
1
1
1
26
26
26
1
1
1
74
74
74
255
255
255
255
255
255
255
255
255
128
128
128
105
105
105
46
46
46
0
0
0
254
254
254
255
255
255
255
255
255
9
9
9
5
5
5
112
112
112
130
130
130
22
22
22
219
219
219
242
242
242
235
235
235
242
242
242
230
230
230
230
230
230
242
242
242
255
255
255
230
230
230
204
204
204
230
230
230
204
204
204
230
230
230
229
229
229
230
230
230
204
204
204
217
217
217
217
217
217
179
179
179
255
255
255
191
191
191
217
217
217
217
217
217
204
204
204
204
204
204
217
217
217
217
217
217
230
230
230
217
217
217
230
230
230
229
229
229
242
242
242
242
242
242
228
228
228
230
230
230
242
242
242
179
179
179
31
31
31
100
100
100
51
51
51
1
1
1
19
19
19
234
234
234
255
255
255
255
255
255
232
232
232
213
213
213
190
190
190
142
142
142
96
96
96
64
64
64
75
75
75
87
87
87
127
127
127
162
162
162
215
215
215
202
202
202
255
255
255
255
255
255
91
91
91
0
0
0
1
1
1
1
1
1
139
139
139
255
255
255
255
255
255
124
124
124
255
255
255
242
242
242
242
242
242
217
217
217
230
230
230
242
242
242
229
229
229
217
217
217
217
217
217
255
255
255
255
255
255
217
217
217
191
191
191
204
204
204
255
255
255
229
229
229
255
255
255
217
217
217
242
242
242
217
217
217
230
230
230
230
230
230
204
204
204
204
204
204
217
217
217
230
230
230
230
230
230
230
230
230
230
230
230
217
217
217
255
255
255
63
63
63
255
255
255
242
242
242
169
169
169
2
2
2
0
0
0
54
54
54
137
137
137
194
194
194
159
159
159
65
65
65
3
3
3
2
2
2
4
4
4
0
0
0
4
4
4
19
19
19
1
1
1
3
3
3
1
1
1
0
0
0
2
2
2
0
0
0
0
0
0
96
96
96
204
204
204
239
239
239
150
150
150
77
77
77
255
255
255
255
255
255
242
242
242
18
18
18
255
255
255
255
255
255
230
230
230
255
255
255
229
229
229
242
242
242
255
255
255
242
242
242
229
229
229
217
217
217
204
204
204
166
166
166
204
204
204
255
255
255
217
217
217
242
242
242
204
204
204
242
242
242
217
217
217
217
217
217
242
242
242
217
217
217
217
217
217
242
242
242
191
191
191
242
242
242
217
217
217
217
217
217
242
242
242
242
242
242
242
242
242
2
2
2
212
212
212
255
255
255
255
255
255
91
91
91
188
188
188
244
244
244
78
78
78
1
1
1
4
4
4
0
0
0
1
1
1
18
18
18
0
0
0
26
26
26
2
2
2
1
1
1
11
11
11
14
14
14
0
0
0
0
0
0
41
41
41
21
21
21
22
22
22
0
0
0
0
0
0
2
2
2
57
57
57
248
248
248
252
252
252
255
255
255
206
206
206
0
0
0
119
119
119
254
254
254
255
255
255
242
242
242
203
203
203
255
255
255
230
230
230
242
242
242
255
255
255
229
229
229
230
230
230
230
230
230
255
255
255
242
242
242
255
255
255
217
217
217
230
230
230
242
242
242
191
191
191
242
242
242
230
230
230
242
242
242
204
204
204
217
217
217
217
217
217
179
179
179
229
229
229
242
242
242
255
255
255
255
255
255
210
210
210
1
1
1
94
94
94
242
242
242
255
255
255
237
237
237
60
60
60
2
2
2
18
18
18
4
4
4
2
2
2
33
33
33
34
34
34
11
11
11
8
8
8
41
41
41
99
99
99
56
56
56
68
68
68
89
89
89
44
44
44
28
28
28
17
17
17
29
29
29
14
14
14
18
18
18
3
3
3
1
1
1
26
26
26
2
2
2
60
60
60
248
248
248
186
186
186
1
1
1
7
7
7
97
97
97
90
90
90
53
53
53
202
202
202
255
255
255
255
255
255
217
217
217
242
242
242
217
217
217
242
242
242
217
217
217
204
204
204
217
217
217
217
217
217
217
217
217
242
242
242
242
242
242
217
217
217
217
217
217
217
217
217
242
242
242
217
217
217
255
255
255
242
242
242
230
230
230
220
220
220
151
151
151
162
162
162
155
155
155
20
20
20
1
1
1
65
65
65
255
255
255
111
111
111
2
2
2
0
0
0
3
3
3
26
26
26
9
9
9
30
30
30
92
92
92
94
94
94
148
148
148
137
137
137
111
111
111
136
136
136
150
150
150
122
122
122
111
111
111
99
99
99
112
112
112
101
101
101
150
150
150
131
131
131
66
66
66
69
69
69
17
17
17
30
30
30
1
1
1
14
14
14
3
3
3
120
120
120
214
214
214
52
52
52
1
1
1
44
44
44
240
240
240
255
255
255
174
174
174
190
190
190
242
242
242
242
242
242
255
255
255
230
230
230
242
242
242
242
242
242
217
217
217
229
229
229
230
230
230
242
242
242
217
217
217
242
242
242
191
191
191
204
204
204
242
242
242
230
230
230
217
217
217
230
230
230
190
190
190
242
242
242
246
246
246
23
23
23
1
1
1
0
0
0
115
115
115
242
242
242
40
40
40
2
2
2
13
13
13
25
25
25
2
2
2
17
17
17
86
86
86
124
124
124
147
147
147
73
73
73
31
31
31
12
12
12
55
55
55
64
64
64
84
84
84
55
55
55
89
89
89
66
66
66
56
56
56
11
11
11
29
29
29
79
79
79
94
94
94
122
122
122
95
95
95
14
14
14
17
17
17
22
22
22
3
3
3
2
2
2
40
40
40
244
244
244
108
108
108
255
255
255
255
255
255
254
254
254
52
52
52
255
255
255
242
242
242
230
230
230
242
242
242
242
242
242
242
242
242
242
242
242
242
242
242
230
230
230
217
217
217
255
255
255
230
230
230
179
179
179
230
230
230
242
242
242
242
242
242
230
230
230
255
255
255
217
217
217
116
116
116
255
255
255
255
255
255
252
252
252
163
163
163
131
131
131
208
208
208
3
3
3
24
24
24
1
1
1
26
26
26
1
1
1
101
101
101
150
150
150
89
89
89
46
46
46
2
2
2
167
167
167
215
215
215
170
170
170
104
104
104
30
30
30
59
59
59
21
21
21
26
26
26
74
74
74
88
88
88
187
187
187
206
206
206
157
157
157
3
3
3
27
27
27
120
120
120
133
133
133
130
130
130
0
0
0
43
43
43
1
1
1
32
32
32
13
13
13
230
230
230
255
255
255
242
242
242
108
108
108
33
33
33
255
255
255
255
255
255
242
242
242
242
242
242
230
230
230
242
242
242
204
204
204
217
217
217
230
230
230
255
255
255
230
230
230
230
230
230
217
217
217
242
242
242
217
217
217
255
255
255
230
230
230
217
217
217
242
242
242
149
149
149
45
45
45
255
255
255
255
255
255
242
242
242
180
180
180
0
0
0
27
27
27
14
14
14
13
13
13
66
66
66
159
159
159
107
107
107
13
13
13
132
132
132
130
130
130
102
102
102
104
104
104
0
0
0
4
4
4
7
7
7
2
2
2
1
1
1
64
64
64
9
9
9
4
4
4
6
6
6
2
2
2
0
0
0
65
65
65
158
158
158
171
171
171
107
107
107
17
17
17
105
105
105
173
173
173
47
47
47
32
32
32
1
1
1
7
7
7
2
2
2
209
209
209
226
226
226
0
0
0
1
1
1
213
213
213
255
255
255
255
255
255
255
255
255
230
230
230
255
255
255
230
230
230
230
230
230
229
229
229
230
230
230
242
242
242
242
242
242
230
230
230
191
191
191
230
230
230
255
255
255
242
242
242
242
242
242
255
255
255
168
168
168
1
1
1
114
114
114
255
255
255
140
140
140
0
0
0
17
17
17
1
1
1
19
19
19
84
84
84
138
138
138
58
58
58
74
74
74
182
182
182
107
107
107
0
0
0
1
1
1
4
4
4
66
66
66
25
25
25
16
16
16
0
0
0
1
1
1
174
174
174
0
0
0
10
10
10
3
3
3
9
9
9
42
42
42
86
86
86
3
3
3
0
0
0
129
129
129
195
195
195
40
40
40
58
58
58
105
105
105
60
60
60
13
13
13
19
19
19
12
12
12
1
1
1
213
213
213
104
104
104
1
1
1
36
36
36
188
188
188
172
172
172
227
227
227
230
230
230
230
230
230
217
217
217
242
242
242
242
242
242
230
230
230
255
255
255
230
230
230
229
229
229
255
255
255
204
204
204
255
255
255
230
230
230
242
242
242
242
242
242
65
65
65
3
3
3
60
60
60
211
211
211
0
0
0
1
1
1
1
1
1
0
0
0
144
144
144
138
138
138
18
18
18
142
142
142
149
149
149
6
6
6
12
12
12
34
34
34
24
24
24
1
1
1
168
168
168
18
18
18
8
8
8
130
130
130
0
0
0
200
200
200
1
1
1
108
108
108
116
116
116
4
4
4
124
124
124
85
85
85
3
3
3
9
9
9
4
4
4
3
3
3
126
126
126
173
173
173
8
8
8
109
109
109
110
110
110
17
17
17
44
44
44
51
51
51
1
1
1
242
242
242
36
36
36
2
2
2
16
16
16
105
105
105
229
229
229
255
255
255
229
229
229
242
242
242
230
230
230
230
230
230
217
217
217
242
242
242
217
217
217
217
217
217
255
255
255
230
230
230
230
230
230
181
181
181
130
130
130
39
39
39
1
1
1
35
35
35
248
248
248
16
16
16
1
1
1
19
19
19
1
1
1
90
90
90
94
94
94
1
1
1
204
204
204
51
51
51
0
0
0
5
5
5
47
47
47
9
9
9
3
3
3
15
15
15
133
133
133
1
1
1
0
0
0
161
161
161
104
104
104
196
196
196
80
80
80
134
134
134
48
48
48
7
7
7
134
134
134
0
0
0
27
27
27
1
1
1
52
52
52
64
64
64
0
0
0
55
55
55
172
172
172
25
25
25
130
130
130
69
69
69
0
0
0
25
25
25
27
27
27
41
41
41
235
235
235
176
176
176
242
242
242
255
255
255
255
255
255
225
225
225
229
229
229
230
230
230
255
255
255
229
229
229
230
230
230
255
255
255
255
255
255
242
242
242
230
230
230
255
255
255
242
242
242
215
215
215
116
116
116
63
63
63
1
1
1
223
223
223
85
85
85
13
13
13
1
1
1
23
23
23
109
109
109
98
98
98
15
15
15
174
174
174
7
7
7
1
1
1
36
36
36
109
109
109
10
10
10
22
22
22
190
190
190
74
74
74
100
100
100
43
43
43
108
108
108
175
175
175
185
185
185
220
220
220
196
196
196
200
200
200
62
62
62
34
34
34
105
105
105
85
85
85
86
86
86
115
115
115
23
23
23
42
42
42
67
67
67
17
17
17
7
7
7
176
176
176
24
24
24
127
127
127
86
86
86
11
11
11
26
26
26
1
1
1
132
132
132
255
255
255
255
255
255
242
242
242
168
168
168
84
84
84
255
255
255
255
255
255
242
242
242
255
255
255
229
229
229
229
229
229
242
242
242
217
217
217
242
242
242
203
203
203
223
223
223
255
255
255
242
242
242
230
230
230
255
255
255
164
164
164
1
1
1
16
16
16
2
2
2
58
58
58
118
118
118
10
10
10
178
178
178
0
0
0
26
26
26
16
16
16
5
5
5
155
155
155
69
69
69
21
21
21
144
144
144
139
139
139
190
190
190
178
178
178
118
118
118
4
4
4
0
0
0
2
2
2
4
4
4
5
5
5
127
127
127
163
163
163
147
147
147
169
169
169
180
180
180
6
6
6
9
9
9
200
200
200
22
22
22
33
33
33
35
35
35
0
0
0
185
185
185
10
10
10
147
147
147
76
76
76
14
14
14
1
1
1
1
1
1
184
184
184
242
242
242
173
173
173
19
19
19
239
239
239
255
255
255
242
242
242
242
242
242
217
217
217
217
217
217
255
255
255
242
242
242
217
217
217
242
242
242
255
255
255
50
50
50
211
211
211
255
255
255
255
255
255
255
255
255
4
4
4
1
1
1
26
26
26
68
68
68
125
125
125
9
9
9
170
170
170
12
12
12
26
26
26
23
23
23
14
14
14
1
1
1
1
1
1
188
188
188
73
73
73
224
224
224
83
83
83
31
31
31
13
13
13
1
1
1
5
5
5
18
18
18
68
68
68
28
28
28
23
23
23
0
0
0
4
4
4
28
28
28
68
68
68
203
203
203
100
100
100
122
122
122
1
1
1
7
7
7
0
0
0
12
12
12
36
36
36
41
41
41
181
181
181
20
20
20
135
135
135
63
63
63
28
28
28
28
28
28
35
35
35
250
250
250
2
2
2
1
1
1
255
255
255
255
255
255
255
255
255
255
255
255
242
242
242
217
217
217
255
255
255
230
230
230
255
255
255
242
242
242
242
242
242
240
240
240
0
0
0
130
130
130
228
228
228
92
92
92
1
1
1
13
13
13
2
2
2
113
113
113
66
66
66
115
115
115
56
56
56
1
1
1
0
0
0
27
27
27
82
82
82
127
127
127
125
125
125
150
150
150
135
135
135
1
1
1
2
2
2
2
2
2
13
13
13
5
5
5
27
27
27
15
15
15
29
29
29
11
11
11
8
8
8
34
34
34
64
64
64
20
20
20
9
9
9
0
0
0
176
176
176
210
210
210
165
165
165
61
61
61
142
142
142
22
22
22
2
2
2
0
0
0
86
86
86
101
101
101
96
96
96
107
107
107
0
0
0
1
1
1
1
1
1
135
135
135
79
79
79
0
0
0
141
141
141
255
255
255
242
242
242
255
255
255
242
242
242
242
242
242
230
230
230
217
217
217
217
217
217
255
255
255
230
230
230
255
255
255
8
8
8
6
6
6
255
255
255
35
35
35
3
3
3
4
4
4
81
81
81
116
116
116
12
12
12
164
164
164
0
0
0
74
74
74
153
153
153
5
5
5
85
85
85
78
78
78
107
107
107
94
94
94
0
0
0
11
11
11
16
16
16
11
11
11
50
50
50
53
53
53
31
31
31
31
31
31
25
25
25
38
38
38
11
11
11
3
3
3
65
65
65
42
42
42
9
9
9
27
27
27
0
0
0
112
112
112
97
97
97
147
147
147
0
0
0
37
37
37
12
12
12
17
17
17
32
32
32
163
163
163
36
36
36
115
115
115
49
49
49
1
1
1
13
13
13
25
25
25
245
245
245
0
0
0
1
1
1
100
100
100
186
186
186
225
225
225
255
255
255
217
217
217
255
255
255
242
242
242
255
255
255
255
255
255
255
255
255
141
141
141
1
1
1
117
117
117
164
164
164
0
0
0
1
1
1
6
6
6
123
123
123
60
60
60
179
179
179
20
20
20
16
16
16
8
8
8
7
7
7
168
168
168
43
43
43
167
167
167
27
27
27
8
8
8
110
110
110
133
133
133
0
0
0
34
34
34
52
52
52
18
18
18
2
2
2
20
20
20
27
27
27
22
22
22
14
14
14
30
30
30
1
1
1
1
1
1
12
12
12
68
68
68
1
1
1
20
20
20
49
49
49
17
17
17
6
6
6
80
80
80
131
131
131
133
133
133
165
165
165
33
33
33
128
128
128
40
40
40
110
110
110
5
5
5
0
0
0
0
0
0
224
224
224
95
95
95
118
118
118
222
222
222
255
255
255
255
255
255
255
255
255
255
255
255
255
255
255
255
255
255
242
242
242
242
242
242
105
105
105
2
2
2
0
0
0
178
178
178
16
16
16
1
1
1
19
19
19
56
56
56
149
149
149
61
61
61
172
172
172
5
5
5
16
16
16
0
0
0
2
2
2
56
56
56
159
159
159
73
73
73
1
1
1
2
2
2
111
111
111
255
255
255
149
149
149
193
193
193
126
126
126
22
22
22
52
52
52
24
24
24
26
26
26
2
2
2
27
27
27
56
56
56
37
37
37
6
6
6
24
24
24
20
20
20
1
1
1
27
27
27
125
125
125
123
123
123
174
174
174
144
144
144
103
103
103
156
156
156
151
151
151
87
87
87
175
175
175
25
25
25
140
140
140
46
46
46
10
10
10
6
6
6
47
47
47
255
255
255
242
242
242
255
255
255
255
255
255
230
230
230
255
255
255
217
217
217
242
242
242
230
230
230
242
242
242
164
164
164
106
106
106
121
121
121
106
106
106
226
226
226
2
2
2
1
1
1
1
1
1
117
117
117
51
51
51
174
174
174
0
0
0
41
41
41
2
2
2
118
118
118
121
121
121
80
80
80
182
182
182
0
0
0
20
20
20
130
130
130
219
219
219
255
255
255
255
255
255
214
214
214
0
0
0
4
4
4
31
31
31
56
56
56
58
58
58
33
33
33
10
10
10
22
22
22
64
64
64
13
13
13
14
14
14
92
92
92
172
172
172
161
161
161
137
137
137
120
120
120
191
191
191
143
143
143
162
162
162
146
146
146
143
143
143
108
108
108
11
11
11
144
144
144
78
78
78
86
86
86
18
18
18
18
18
18
8
8
8
235
235
235
242
242
242
250
250
250
114
114
114
137
137
137
255
255
255
255
255
255
204
204
204
255
255
255
255
255
255
255
255
255
255
255
255
242
242
242
255
255
255
179
179
179
0
0
0
19
19
19
25
25
25
156
156
156
5
5
5
161
161
161
4
4
4
57
57
57
27
27
27
14
14
14
37
37
37
217
217
217
36
36
36
1
1
1
45
45
45
233
233
233
254
254
254
255
255
255
255
255
255
161
161
161
4
4
4
60
60
60
8
8
8
24
24
24
41
41
41
12
12
12
65
65
65
34
34
34
26
26
26
31
31
31
19
19
19
147
147
147
199
199
199
153
153
153
151
151
151
122
122
122
178
178
178
130
130
130
117
117
117
37
37
37
14
14
14
2
2
2
0
0
0
147
147
147
24
24
24
142
142
142
12
12
12
20
20
20
29
29
29
193
193
193
148
148
148
1
1
1
36
36
36
255
255
255
255
255
255
242
242
242
217
217
217
217
217
217
187
187
187
149
149
149
255
255
255
255
255
255
230
230
230
95
95
95
2
2
2
5
5
5
31
31
31
131
131
131
47
47
47
132
132
132
7
7
7
92
92
92
185
185
185
59
59
59
63
63
63
141
141
141
0
0
0
2
2
2
1
1
1
1
1
1
110
110
110
255
255
255
217
217
217
255
255
255
62
62
62
18
18
18
8
8
8
49
49
49
87
87
87
173
173
173
209
209
209
9
9
9
19
19
19
38
38
38
9
9
9
109
109
109
212
212
212
179
179
179
167
167
167
111
111
111
94
94
94
232
232
232
168
168
168
4
4
4
36
36
36
3
3
3
20
20
20
133
133
133
4
4
4
134
134
134
58
58
58
29
29
29
36
36
36
172
172
172
159
159
159
1
1
1
193
193
193
255
255
255
230
230
230
242
242
242
230
230
230
230
230
230
242
242
242
75
75
75
7
7
7
87
87
87
254
254
254
17
17
17
18
18
18
10
10
10
83
83
83
98
98
98
148
148
148
37
37
37
7
7
7
4
4
4
1
1
1
76
76
76
118
118
118
57
57
57
4
4
4
20
20
20
2
2
2
2
2
2
120
120
120
169
169
169
0
0
0
1
1
1
41
41
41
7
7
7
22
22
22
174
174
174
158
158
158
137
137
137
162
162
162
50
50
50
9
9
9
22
22
22
11
11
11
88
88
88
91
91
91
49
49
49
7
7
7
153
153
153
158
158
158
186
186
186
215
215
215
25
25
25
23
23
23
9
9
9
58
58
58
89
89
89
153
153
153
136
136
136
78
78
78
11
11
11
20
20
20
83
83
83
219
219
219
2
2
2
171
171
171
255
255
255
255
255
255
242
242
242
242
242
242
230
230
230
255
255
255
227
227
227
3
3
3
3
3
3
237
237
237
1
1
1
13
13
13
0
0
0
116
116
116
51
51
51
183
183
183
0
0
0
20
20
20
53
53
53
24
24
24
89
89
89
187
187
187
11
11
11
14
14
14
26
26
26
8
8
8
28
28
28
2
2
2
64
64
64
63
63
63
133
133
133
111
111
111
10
10
10
17
17
17
78
78
78
140
140
140
154
154
154
110
110
110
122
122
122
10
10
10
1
1
1
63
63
63
2
2
2
0
0
0
20
20
20
28
28
28
181
181
181
142
142
142
135
135
135
184
184
184
77
77
77
23
23
23
2
2
2
19
19
19
15
15
15
241
241
241
66
66
66
95
95
95
9
9
9
26
26
26
3
3
3
230
230
230
15
15
15
14
14
14
206
206
206
255
255
255
255
255
255
255
255
255
242
242
242
230
230
230
255
255
255
18
18
18
11
11
11
214
214
214
1
1
1
23
23
23
29
29
29
118
118
118
27
27
27
169
169
169
1
1
1
37
37
37
59
59
59
168
168
168
181
181
181
200
200
200
3
3
3
6
6
6
17
17
17
35
35
35
33
33
33
25
25
25
147
147
147
153
153
153
135
135
135
172
172
172
36
36
36
21
21
21
83
83
83
174
174
174
169
169
169
117
117
117
141
141
141
15
15
15
1
1
1
23
23
23
36
36
36
15
15
15
11
11
11
17
17
17
72
72
72
147
147
147
131
131
131
160
160
160
97
97
97
12
12
12
33
33
33
20
20
20
0
0
0
213
213
213
41
41
41
153
153
153
13
13
13
5
5
5
2
2
2
251
251
251
154
154
154
140
140
140
82
82
82
148
148
148
254
254
254
255
255
255
242
242
242
229
229
229
174
174
174
2
2
2
39
39
39
231
231
231
1
1
1
1
1
1
19
19
19
159
159
159
7
7
7
130
130
130
1
1
1
46
46
46
2
2
2
0
0
0
0
0
0
4
4
4
38
38
38
112
112
112
126
126
126
129
129
129
78
78
78
41
41
41
58
58
58
169
169
169
175
175
175
134
134
134
98
98
98
7
7
7
23
23
23
164
164
164
141
141
141
227
227
227
179
179
179
18
18
18
32
32
32
13
13
13
2
2
2
29
29
29
14
14
14
52
52
52
0
0
0
113
113
113
199
199
199
110
110
110
147
147
147
14
14
14
24
24
24
35
35
35
7
7
7
178
178
178
32
32
32
186
186
186
13
13
13
24
24
24
28
28
28
236
236
236
255
255
255
255
255
255
255
255
255
255
255
255
255
255
255
255
255
255
178
178
178
147
147
147
50
50
50
82
82
82
128
128
128
158
158
158
29
29
29
12
12
12
0
0
0
116
116
116
41
41
41
130
130
130
13
13
13
37
37
37
15
15
15
55
55
55
102
102
102
184
184
184
149
149
149
153
153
153
172
172
172
163
163
163
146
146
146
10
10
10
3
3
3
176
176
176
146
146
146
168
168
168
143
143
143
13
13
13
1
1
1
121
121
121
192
192
192
185
185
185
181
181
181
53
53
53
11
11
11
22
22
22
11
11
11
11
11
11
12
12
12
19
19
19
10
10
10
105
105
105
149
149
149
105
105
105
126
126
126
113
113
113
26
26
26
7
7
7
1
1
1
184
184
184
11
11
11
161
161
161
7
7
7
4
4
4
16
16
16
229
229
229
255
255
255
242
242
242
255
255
255
195
195
195
203
203
203
255
255
255
255
255
255
242
242
242
255
255
255
255
255
255
255
255
255
172
172
172
2
2
2
24
24
24
23
23
23
137
137
137
45
45
45
142
142
142
27
27
27
110
110
110
116
116
116
156
156
156
109
109
109
195
195
195
119
119
119
143
143
143
134
134
134
155
155
155
172
172
172
34
34
34
18
18
18
227
227
227
191
191
191
177
177
177
158
158
158
46
46
46
28
28
28
30
30
30
182
182
182
200
200
200
174
174
174
153
153
153
5
5
5
20
20
20
33
33
33
1
1
1
28
28
28
49
49
49
4
4
4
90
90
90
138
138
138
157
157
157
142
142
142
118
118
118
19
19
19
2
2
2
2
2
2
193
193
193
25
25
25
136
136
136
0
0
0
13
13
13
23
23
23
229
229
229
118
118
118
51
51
51
1
1
1
194
194
194
255
255
255
242
242
242
255
255
255
230
230
230
255
255
255
255
255
255
242
242
242
188
188
188
1
1
1
11
11
11
13
13
13
150
150
150
30
30
30
144
144
144
81
81
81
157
157
157
156
156
156
176
176
176
162
162
162
109
109
109
183
183
183
134
134
134
85
85
85
23
23
23
29
29
29
1
1
1
4
4
4
110
110
110
206
206
206
141
141
141
169
169
169
146
146
146
10
10
10
5
5
5
167
167
167
162
162
162
118
118
118
160
160
160
33
33
33
38
38
38
6
6
6
98
98
98
88
88
88
185
185
185
1
1
1
8
8
8
162
162
162
114
114
114
133
133
133
137
137
137
6
6
6
24
24
24
2
2
2
197
197
197
62
62
62
124
124
124
13
13
13
27
27
27
3
3
3
225
225
225
22
22
22
4
4
4
228
228
228
255
255
255
255
255
255
255
255
255
203
203
203
183
183
183
66
66
66
102
102
102
139
139
139
204
204
204
12
12
12
19
19
19
0
0
0
157
157
157
17
17
17
176
176
176
90
90
90
128
128
128
170
170
170
159
159
159
95
95
95
104
104
104
188
188
188
109
109
109
9
9
9
15
15
15
14
14
14
24
24
24
17
17
17
99
99
99
169
169
169
162
162
162
154
154
154
121
121
121
5
5
5
1
1
1
85
85
85
120
120
120
165
165
165
173
173
173
101
101
101
105
105
105
226
226
226
126
126
126
146
146
146
182
182
182
21
21
21
11
11
11
131
131
131
133
133
133
115
115
115
80
80
80
30
30
30
31
31
31
0
0
0
200
200
200
29
29
29
99
99
99
7
7
7
4
4
4
0
0
0
244
244
244
1
1
1
46
46
46
255
255
255
255
255
255
255
255
255
255
255
255
255
255
255
230
230
230
184
184
184
1
1
1
1
1
1
238
238
238
18
18
18
15
15
15
31
31
31
130
130
130
64
64
64
215
215
215
17
17
17
121
121
121
49
49
49
19
19
19
152
152
152
178
178
178
119
119
119
103
103
103
82
82
82
1
1
1
18
18
18
33
33
33
47
47
47
0
0
0
196
196
196
139
139
139
197
197
197
186
186
186
9
9
9
4
4
4
88
88
88
156
156
156
157
157
157
190
190
190
125
125
125
172
172
172
178
178
178
118
118
118
116
116
116
159
159
159
76
76
76
6
6
6
44
44
44
22
22
22
1
1
1
25
25
25
38
38
38
17
17
17
6
6
6
195
195
195
53
53
53
121
121
121
25
25
25
17
17
17
13
13
13
217
217
217
0
0
0
13
13
13
255
255
255
255
255
255
242
242
242
242
242
242
229
229
229
255
255
255
255
255
255
91
91
91
0
0
0
224
224
224
61
61
61
2
2
2
27
27
27
106
106
106
64
64
64
187
187
187
37
37
37
22
22
22
20
20
20
0
0
0
35
35
35
156
156
156
123
123
123
143
143
143
131
131
131
23
23
23
22
22
22
8
8
8
1
1
1
24
24
24
88
88
88
155
155
155
213
213
213
149
149
149
108
108
108
12
12
12
0
0
0
138
138
138
129
129
129
211
211
211
190
190
190
134
134
134
205
205
205
158
158
158
133
133
133
63
63
63
7
7
7
46
46
46
44
44
44
179
179
179
57
57
57
14
14
14
24
24
24
31
31
31
61
61
61
159
159
159
84
84
84
89
89
89
13
13
13
3
3
3
110
110
110
251
251
251
115
115
115
2
2
2
147
147
147
255
255
255
255
255
255
255
255
255
230
230
230
255
255
255
255
255
255
134
134
134
18
18
18
187
187
187
102
102
102
4
4
4
33
33
33
87
87
87
100
100
100
63
63
63
143
143
143
38
38
38
1
1
1
47
47
47
30
30
30
130
130
130
208
208
208
123
123
123
96
96
96
5
5
5
3
3
3
18
18
18
1
1
1
45
45
45
71
71
71
172
172
172
167
167
167
172
172
172
163
163
163
26
26
26
11
11
11
94
94
94
202
202
202
149
149
149
167
167
167
127
127
127
58
58
58
16
16
16
0
0
0
12
12
12
20
20
20
0
0
0
169
169
169
138
138
138
123
123
123
136
136
136
194
194
194
3
3
3
163
163
163
18
18
18
109
109
109
48
48
48
25
25
25
5
5
5
193
193
193
255
255
255
255
255
255
245
245
245
164
164
164
220
220
220
242
242
242
255
255
255
255
255
255
255
255
255
202
202
202
1
1
1
37
37
37
187
187
187
150
150
150
4
4
4
13
13
13
28
28
28
123
123
123
6
6
6
134
134
134
0
0
0
2
2
2
6
6
6
15
15
15
140
140
140
144
144
144
170
170
170
168
168
168
40
40
40
15
15
15
44
44
44
13
13
13
14
14
14
13
13
13
195
195
195
176
176
176
136
136
136
136
136
136
15
15
15
41
41
41
47
47
47
141
141
141
70
70
70
9
9
9
23
23
23
5
5
5
11
11
11
35
35
35
3
3
3
64
64
64
74
74
74
192
192
192
103
103
103
0
0
0
1
1
1
0
0
0
13
13
13
154
154
154
8
8
8
163
163
163
12
12
12
12
12
12
1
1
1
201
201
201
242
242
242
255
255
255
255
255
255
255
255
255
255
255
255
255
255
255
230
230
230
242
242
242
242
242
242
116
116
116
156
156
156
255
255
255
242
242
242
203
203
203
1
1
1
1
1
1
7
7
7
146
146
146
61
61
61
170
170
170
0
0
0
2
2
2
15
15
15
14
14
14
50
50
50
126
126
126
171
171
171
108
108
108
102
102
102
0
0
0
20
20
20
40
40
40
1
1
1
19
19
19
106
106
106
102
102
102
197
197
197
161
161
161
73
73
73
6
6
6
11
11
11
33
33
33
24
24
24
9
9
9
14
14
14
63
63
63
22
22
22
34
34
34
22
22
22
3
3
3
165
165
165
0
0
0
164
164
164
67
67
67
8
8
8
12
12
12
0
0
0
138
138
138
63
63
63
100
100
100
30
30
30
7
7
7
22
22
22
235
235
235
69
69
69
128
128
128
172
172
172
228
228
228
242
242
242
255
255
255
230
230
230
217
217
217
242
242
242
251
251
251
255
255
255
255
255
255
255
255
255
255
255
255
24
24
24
5
5
5
31
31
31
38
38
38
93
93
93
88
88
88
163
163
163
32
32
32
29
29
29
42
42
42
19
19
19
126
126
126
184
184
184
116
116
116
128
128
128
24
24
24
15
15
15
28
28
28
26
26
26
2
2
2
49
49
49
104
104
104
28
28
28
42
42
42
23
23
23
20
20
20
20
20
20
9
9
9
9
9
9
2
2
2
2
2
2
26
26
26
12
12
12
25
25
25
6
6
6
156
156
156
157
157
157
82
82
82
2
2
2
56
56
56
39
39
39
35
35
35
145
145
145
27
27
27
93
93
93
29
29
29
2
2
2
34
34
34
63
63
63
152
152
152
0
0
0
0
0
0
170
170
170
247
247
247
255
255
255
242
242
242
255
255
255
242
242
242
230
230
230
255
255
255
193
193
193
167
167
167
139
139
139
140
140
140
137
137
137
11
11
11
5
5
5
13
13
13
93
93
93
66
66
66
166
166
166
12
12
12
51
51
51
14
14
14
1
1
1
150
150
150
217
217
217
127
127
127
211
211
211
70
70
70
26
26
26
25
25
25
69
69
69
16
16
16
24
24
24
8
8
8
31
31
31
21
21
21
25
25
25
51
51
51
26
26
26
25
25
25
0
0
0
5
5
5
18
18
18
34
34
34
14
14
14
3
3
3
99
99
99
183
183
183
72
72
72
138
138
138
0
0
0
5
5
5
35
35
35
1
1
1
140
140
140
51
51
51
151
151
151
4
4
4
2
2
2
36
36
36
202
202
202
58
58
58
29
29
29
223
223
223
255
255
255
255
255
255
255
255
255
255
255
255
217
217
217
255
255
255
230
230
230
204
204
204
135
135
135
23
23
23
2
2
2
7
7
7
253
253
253
13
13
13
3
3
3
0
0
0
88
88
88
101
101
101
60
60
60
132
132
132
7
7
7
40
40
40
14
14
14
94
94
94
199
199
199
141
141
141
179
179
179
35
35
35
4
4
4
24
24
24
19
19
19
38
38
38
0
0
0
47
47
47
24
24
24
13
13
13
1
1
1
14
14
14
18
18
18
0
0
0
13
13
13
48
48
48
33
33
33
30
30
30
13
13
13
111
111
111
204
204
204
62
62
62
129
129
129
3
3
3
181
181
181
12
12
12
1
1
1
184
184
184
25
25
25
101
101
101
47
47
47
7
7
7
11
11
11
79
79
79
252
252
252
2
2
2
45
45
45
255
255
255
255
255
255
242
242
242
242
242
242
230
230
230
230
230
230
255
255
255
217
217
217
242
242
242
255
255
255
254
254
254
98
98
98
0
0
0
147
147
147
123
123
123
7
7
7
40
40
40
10
10
10
152
152
152
83
83
83
134
134
134
47
47
47
37
37
37
0
0
0
20
20
20
105
105
105
17
17
17
18
18
18
138
138
138
173
173
173
20
20
20
50
50
50
1
1
1
13
13
13
14
14
14
1
1
1
2
2
2
29
29
29
43
43
43
30
30
30
46
46
46
37
37
37
49
49
49
2
2
2
1
1
1
171
171
171
130
130
130
119
119
119
148
148
148
62
62
62
3
3
3
4
4
4
21
21
21
85
85
85
100
100
100
76
76
76
142
142
142
1
1
1
1
1
1
57
57
57
131
131
131
255
255
255
98
98
98
0
0
0
255
255
255
242
242
242
242
242
242
255
255
255
242
242
242
242
242
242
255
255
255
242
242
242
217
217
217
255
255
255
255
255
255
189
189
189
1
1
1
1
1
1
243
243
243
4
4
4
7
7
7
9
9
9
54
54
54
105
105
105
2
2
2
167
167
167
0
0
0
3
3
3
34
34
34
30
30
30
27
27
27
17
17
17
113
113
113
116
116
116
203
203
203
91
91
91
0
0
0
6
6
6
32
32
32
37
37
37
1
1
1
9
9
9
3
3
3
30
30
30
16
16
16
41
41
41
0
0
0
155
155
155
177
177
177
153
153
153
167
167
167
14
14
14
0
0
0
47
47
47
26
26
26
1
1
1
38
38
38
221
221
221
16
16
16
109
109
109
61
61
61
26
26
26
1
1
1
60
60
60
255
255
255
255
255
255
255
255
255
192
192
192
98
98
98
255
255
255
230
230
230
255
255
255
217
217
217
255
255
255
255
255
255
242
242
242
242
242
242
242
242
242
242
242
242
203
203
203
0
0
0
127
127
127
255
255
255
178
178
178
0
0
0
17
17
17
19
19
19
106
106
106
98
98
98
14
14
14
167
167
167
3
3
3
4
4
4
25
25
25
68
68
68
203
203
203
0
0
0
63
63
63
181
181
181
206
206
206
199
199
199
95
95
95
121
121
121
63
63
63
21
21
21
24
24
24
14
14
14
48
48
48
84
84
84
120
120
120
193
193
193
174
174
174
127
127
127
52
52
52
93
93
93
103
103
103
7
7
7
5
5
5
24
24
24
5
5
5
202
202
202
1
1
1
155
155
155
89
89
89
19
19
19
41
41
41
16
16
16
185
185
185
229
229
229
255
255
255
242
242
242
255
255
255
255
255
255
175
175
175
255
255
255
217
217
217
230
230
230
217
217
217
229
229
229
217
217
217
255
255
255
217
217
217
255
255
255
104
104
104
192
192
192
255
255
255
242
242
242
255
255
255
39
39
39
1
1
1
5
5
5
21
21
21
104
104
104
126
126
126
31
31
31
209
209
209
39
39
39
0
0
0
163
163
163
26
26
26
2
2
2
112
112
112
13
13
13
26
26
26
97
97
97
23
23
23
9
9
9
138
138
138
216
216
216
227
227
227
205
205
205
143
143
143
56
56
56
54
54
54
125
125
125
108
108
108
206
206
206
7
7
7
1
1
1
147
147
147
40
40
40
4
4
4
40
40
40
215
215
215
3
3
3
109
109
109
151
151
151
48
48
48
3
3
3
13
13
13
64
64
64
227
227
227
1
1
1
41
41
41
205
205
205
250
250
250
255
255
255
255
255
255
255
255
255
230
230
230
255
255
255
255
255
255
191
191
191
230
230
230
230
230
230
217
217
217
242
242
242
233
233
233
242
242
242
242
242
242
255
255
255
158
158
158
238
238
238
34
34
34
3
3
3
13
13
13
4
4
4
191
191
191
85
85
85
8
8
8
197
197
197
31
31
31
4
4
4
29
29
29
4
4
4
36
36
36
10
10
10
0
0
0
164
164
164
17
17
17
115
115
115
88
88
88
52
52
52
137
137
137
50
50
50
84
84
84
0
0
0
0
0
0
123
123
123
14
14
14
52
52
52
57
57
57
30
30
30
2
2
2
12
12
12
84
84
84
209
209
209
24
24
24
97
97
97
139
139
139
19
19
19
20
20
20
13
13
13
6
6
6
251
251
251
15
15
15
23
23
23
109
109
109
191
191
191
243
243
243
255
255
255
255
255
255
230
230
230
242
242
242
242
242
242
217
217
217
255
255
255
242
242
242
217
217
217
242
242
242
230
230
230
242
242
242
196
196
196
104
104
104
27
27
27
0
0
0
145
145
145
174
174
174
0
0
0
2
2
2
30
30
30
29
29
29
100
100
100
78
78
78
0
0
0
176
176
176
119
119
119
0
0
0
47
47
47
7
7
7
26
26
26
139
139
139
121
121
121
4
4
4
188
188
188
2
2
2
4
4
4
208
208
208
0
0
0
97
97
97
0
0
0
36
36
36
155
155
155
1
1
1
8
8
8
5
5
5
21
21
21
0
0
0
172
172
172
182
182
182
6
6
6
92
92
92
119
119
119
3
3
3
1
1
1
16
16
16
23
23
23
203
203
203
55
55
55
1
1
1
123
123
123
255
255
255
255
255
255
255
255
255
255
255
255
230
230
230
242
242
242
230
230
230
255
255
255
217
217
217
229
229
229
255
255
255
255
255
255
217
217
217
230
230
230
230
230
230
131
131
131
157
157
157
90
90
90
7
7
7
0
0
0
191
191
191
176
176
176
1
1
1
11
11
11
1
1
1
8
8
8
150
150
150
150
150
150
46
46
46
95
95
95
173
173
173
56
56
56
2
2
2
2
2
2
83
83
83
0
0
0
2
2
2
2
2
2
1
1
1
45
45
45
162
162
162
1
1
1
9
9
9
29
29
29
18
18
18
111
111
111
24
24
24
6
6
6
9
9
9
73
73
73
202
202
202
68
68
68
47
47
47
111
111
111
71
71
71
3
3
3
1
1
1
21
21
21
13
13
13
194
194
194
255
255
255
102
102
102
17
17
17
221
221
221
255
255
255
230
230
230
242
242
242
255
255
255
255
255
255
230
230
230
204
204
204
255
255
255
255
255
255
217
217
217
191
191
191
242
242
242
242
242
242
242
242
242
242
242
242
255
255
255
242
242
242
255
255
255
185
185
185
1
1
1
13
13
13
240
240
240
174
174
174
2
2
2
29
29
29
3
3
3
20
20
20
64
64
64
139
139
139
116
116
116
21
21
21
124
124
124
198
198
198
76
76
76
0
0
0
37
37
37
3
3
3
18
18
18
25
25
25
4
4
4
45
45
45
3
3
3
27
27
27
14
14
14
49
49
49
26
26
26
0
0
0
100
100
100
203
203
203
117
117
117
4
4
4
111
111
111
100
100
100
56
56
56
16
16
16
2
2
2
1
1
1
0
0
0
209
209
209
255
255
255
242
242
242
255
255
255
62
62
62
184
184
184
242
242
242
255
255
255
255
255
255
242
242
242
204
204
204
230
230
230
230
230
230
217
217
217
255
255
255
217
217
217
217
217
217
242
242
242
230
230
230
242
242
242
230
230
230
255
255
255
255
255
255
242
242
242
242
242
242
0
0
0
158
158
158
255
255
255
255
255
255
172
172
172
13
13
13
2
2
2
1
1
1
21
21
21
45
45
45
86
86
86
127
127
127
75
75
75
28
28
28
92
92
92
162
162
162
176
176
176
141
141
141
103
103
103
42
42
42
3
3
3
0
0
0
24
24
24
103
103
103
119
119
119
175
175
175
198
198
198
166
166
166
93
93
93
33
33
33
83
83
83
152
152
152
78
78
78
14
14
14
1
1
1
8
8
8
21
21
21
24
24
24
218
218
218
132
132
132
168
168
168
255
255
255
255
255
255
222
222
222
143
143
143
242
242
242
230
230
230
242
242
242
217
217
217
217
217
217
230
230
230
230
230
230
217
217
217
230
230
230
242
242
242
204
204
204
242
242
242
230
230
230
230
230
230
229
229
229
255
255
255
242
242
242
230
230
230
255
255
255
24
24
24
253
253
253
255
255
255
255
255
255
200
200
200
201
201
201
44
44
44
1
1
1
29
29
29
57
57
57
2
2
2
84
84
84
83
83
83
153
153
153
99
99
99
51
51
51
13
13
13
7
7
7
105
105
105
147
147
147
152
152
152
183
183
183
162
162
162
157
157
157
65
65
65
13
13
13
54
54
54
67
67
67
131
131
131
165
165
165
101
101
101
37
37
37
12
12
12
1
1
1
15
15
15
1
1
1
37
37
37
237
237
237
136
136
136
3
3
3
0
0
0
68
68
68
218
218
218
255
255
255
230
230
230
242
242
242
230
230
230
230
230
230
242
242
242
230
230
230
191
191
191
217
217
217
242
242
242
230
230
230
242
242
242
204
204
204
217
217
217
242
242
242
230
230
230
217
217
217
217
217
217
242
242
242
255
255
255
174
174
174
244
244
244
255
255
255
255
255
255
148
148
148
2
2
2
71
71
71
255
255
255
99
99
99
13
13
13
14
14
14
3
3
3
8
8
8
7
7
7
21
21
21
97
97
97
130
130
130
150
150
150
136
136
136
118
118
118
85
85
85
84
84
84
125
125
125
114
114
114
146
146
146
128
128
128
117
117
117
109
109
109
111
111
111
66
66
66
12
12
12
14
14
14
14
14
14
21
21
21
14
14
14
48
48
48
141
141
141
255
255
255
21
21
21
0
0
0
27
27
27
175
175
175
191
191
191
155
155
155
231
231
231
242
242
242
255
255
255
255
255
255
217
217
217
230
230
230
204
204
204
204
204
204
204
204
204
204
204
204
217
217
217
242
242
242
217
217
217
255
255
255
229
229
229
242
242
242
242
242
242
191
191
191
242
242
242
230
230
230
242
242
242
255
255
255
230
230
230
67
67
67
9
9
9
0
0
0
1
1
1
24
24
24
187
187
187
227
227
227
63
63
63
3
3
3
22
22
22
1
1
1
9
9
9
0
0
0
16
16
16
12
12
12
19
19
19
45
45
45
101
101
101
89
89
89
106
106
106
75
75
75
44
44
44
27
27
27
13
13
13
10
10
10
6
6
6
19
19
19
31
31
31
19
19
19
28
28
28
2
2
2
142
142
142
237
237
237
255
255
255
242
242
242
49
49
49
0
0
0
237
237
237
242
242
242
242
242
242
255
255
255
255
255
255
242
242
242
255
255
255
204
204
204
204
204
204
204
204
204
217
217
217
204
204
204
242
242
242
230
230
230
229
229
229
242
242
242
242
242
242
166
166
166
230
230
230
230
230
230
191
191
191
242
242
242
255
255
255
217
217
217
255
255
255
242
242
242
117
117
117
239
239
239
242
242
242
255
255
255
103
103
103
1
1
1
122
122
122
255
255
255
255
255
255
211
211
211
84
84
84
2
2
2
3
3
3
1
1
1
6
6
6
1
1
1
19
19
19
7
7
7
1
1
1
9
9
9
0
0
0
0
0
0
1
1
1
1
1
1
27
27
27
26
26
26
1
1
1
17
17
17
3
3
3
40
40
40
138
138
138
220
220
220
187
187
187
163
163
163
255
255
255
255
255
255
207
207
207
40
40
40
255
255
255
242
242
242
255
255
255
229
229
229
242
242
242
242
242
242
230
230
230
217
217
217
242
242
242
230
230
230
191
191
191
229
229
229
230
230
230
191
191
191
217
217
217
217
217
217
217
217
217
204
204
204
191
191
191
230
230
230
204
204
204
242
242
242
230
230
230
230
230
230
217
217
217
242
242
242
230
230
230
229
229
229
255
255
255
230
230
230
255
255
255
0
0
0
242
242
242
255
255
255
255
255
255
58
58
58
220
220
220
250
250
250
148
148
148
58
58
58
12
12
12
15
15
15
9
9
9
1
1
1
21
21
21
45
45
45
2
2
2
2
2
2
2
2
2
22
22
22
1
1
1
5
5
5
19
19
19
65
65
65
162
162
162
255
255
255
214
214
214
14
14
14
0
0
0
0
0
0
182
182
182
255
255
255
242
242
242
70
70
70
255
255
255
242
242
242
229
229
229
242
242
242
255
255
255
255
255
255
242
242
242
242
242
242
230
230
230
229
229
229
217
217
217
166
166
166
242
242
242
230
230
230
242
242
242
217
217
217
230
230
230
217
217
217
242
242
242
217
217
217
217
217
217
217
217
217
242
242
242
230
230
230
229
229
229
217
217
217
217
217
217
204
204
204
217
217
217
242
242
242
255
255
255
114
114
114
255
255
255
242
242
242
109
109
109
1
1
1
2
2
2
7
7
7
128
128
128
242
242
242
246
246
246
242
242
242
214
214
214
141
141
141
127
127
127
129
129
129
89
89
89
143
143
143
126
126
126
180
180
180
210
210
210
247
247
247
255
255
255
255
255
255
255
255
255
233
233
233
0
0
0
1
1
1
58
58
58
99
99
99
43
43
43
159
159
159
255
255
255
247
247
247
255
255
255
242
242
242
230
230
230
255
255
255
217
217
217
204
204
204
242
242
242
191
191
191
191
191
191
204
204
204
204
204
204
242
242
242
230
230
230
242
242
242
230
230
230
191
191
191
217
217
217
217
217
217
230
230
230
229
229
229
217
217
217
217
217
217
229
229
229
230
230
230
191
191
191
242
242
242
230
230
230
230
230
230
242
242
242
242
242
242
255
255
255
201
201
201
255
255
255
191
191
191
27
27
27
169
169
169
109
109
109
51
51
51
30
30
30
255
255
255
255
255
255
242
242
242
85
85
85
116
116
116
168
168
168
181
181
181
255
255
255
255
255
255
255
255
255
92
92
92
50
50
50
22
22
22
5
5
5
242
242
242
255
255
255
255
255
255
0
0
0
161
161
161
255
255
255
242
242
242
255
255
255
200
200
200
255
255
255
242
242
242
242
242
242
230
230
230
255
255
255
255
255
255
204
204
204
217
217
217
255
255
255
204
204
204
242
242
242
217
217
217
242
242
242
230
230
230
217
217
217
230
230
230
242
242
242
217
217
217
204
204
204
217
217
217
229
229
229
204
204
204
217
217
217
229
229
229
217
217
217
217
217
217
229
229
229
242
242
242
255
255
255
217
217
217
242
242
242
229
229
229
230
230
230
230
230
230
228
228
228
114
114
114
255
255
255
255
255
255
255
255
255
144
144
144
37
37
37
255
255
255
255
255
255
149
149
149
1
1
1
0
0
0
0
0
0
7
7
7
253
253
253
255
255
255
243
243
243
0
0
0
3
3
3
26
26
26
4
4
4
59
59
59
242
242
242
230
230
230
43
43
43
237
237
237
242
242
242
255
255
255
242
242
242
229
229
229
242
242
242
255
255
255
242
242
242
242
242
242
217
217
217
255
255
255
230
230
230
255
255
255
204
204
204
242
242
242
230
230
230
255
255
255
217
217
217
217
217
217
229
229
229
217
217
217
230
230
230
217
217
217
217
217
217
191
191
191
255
255
255
242
242
242
217
217
217
230
230
230
217
217
217
229
229
229
217
217
217
217
217
217
242
242
242
242
242
242
242
242
242
255
255
255
230
230
230
229
229
229
255
255
255
255
255
255
242
242
242
255
255
255
242
242
242
242
242
242
104
104
104
255
255
255
242
242
242
75
75
75
57
57
57
212
212
212
118
118
118
0
0
0
248
248
248
255
255
255
214
214
214
0
0
0
215
215
215
255
255
255
253
253
253
59
59
59
211
211
211
255
255
255
139
139
139
255
255
255
255
255
255
255
255
255
242
242
242
242
242
242
242
242
242
242
242
242
242
242
242
242
242
242
217
217
217
242
242
242
229
229
229
230
230
230
204
204
204
255
255
255
204
204
204
217
217
217
230
230
230
204
204
204
191
191
191
191
191
191
255
255
255
229
229
229
230
230
230
217
217
217
217
217
217
242
242
242
242
242
242
230
230
230
242
242
242
217
217
217
191
191
191
217
217
217
230
230
230
204
204
204
242
242
242
255
255
255
230
230
230
242
242
242
229
229
229
255
255
255
230
230
230
242
242
242
255
255
255
255
255
255
199
199
199
255
255
255
226
226
226
126
126
126
242
242
242
255
255
255
255
255
255
202
202
202
155
155
155
242
242
242
207
207
207
107
107
107
255
255
255
242
242
242
242
242
242
242
242
242
230
230
230
255
255
255
255
255
255
242
242
242
242
242
242
242
242
242
255
255
255
242
242
242
242
242
242
255
255
255
255
255
255
204
204
204
217
217
217
217
217
217
217
217
217
191
191
191
217
217
217
242
242
242
217
217
217
204
204
204
230
230
230
242
242
242
191
191
191
217
217
217
217
217
217
217
217
217
191
191
191
217
217
217
230
230
230
217
217
217
230
230
230
217
217
217
191
191
191
230
230
230
242
242
242
255
255
255
179
179
179
204
204
204
217
217
217
242
242
242
204
204
204
229
229
229
242
242
242
242
242
242
230
230
230
230
230
230
230
230
230
242
242
242
255
255
255
255
255
255
245
245
245
255
255
255
255
255
255
255
255
255
255
255
255
242
242
242
200
200
200
255
255
255
198
198
198
255
255
255
242
242
242
242
242
242
255
255
255
255
255
255
255
255
255
230
230
230
242
242
242
255
255
255
229
229
229
242
242
242
242
242
242
178
178
178
242
242
242
242
242
242
255
255
255
242
242
242
242
242
242
229
229
229
230
230
230
242
242
242
217
217
217
217
217
217
204
204
204
217
217
217
230
230
230
255
255
255
204
204
204
255
255
255
217
217
217
242
242
242
204
204
204
191
191
191
230
230
230
204
204
204
217
217
217
229
229
229
230
230
230
217
217
217
229
229
229
230
230
230
204
204
204
217
217
217
191
191
191
242
242
242
230
230
230
242
242
242
242
242
242
255
255
255
217
217
217
242
242
242
255
255
255
242
242
242
255
255
255
230
230
230
242
242
242
255
255
255
255
255
255
217
217
217
242
242
242
255
255
255
217
217
217
255
255
255
255
255
255
230
230
230
242
242
242
229
229
229
242
242
242
242
242
242
230
230
230
242
242
242
255
255
255
217
217
217
230
230
230
242
242
242
217
217
217
242
242
242
242
242
242
230
230
230
255
255
255
242
242
242
230
230
230
229
229
229
230
230
230
204
204
204
230
230
230
230
230
230
255
255
255
217
217
217
204
204
204
229
229
229
204
204
204
242
242
242
